<svg viewBox="0 0 452 843" xmlns="http://www.w3.org/2000/svg" xml:space="preserve" fill-rule="evenodd"
    clip-rule="evenodd" stroke-linecap="round" stroke-linejoin="round" stroke-miterlimit="1.5">
    <style>
        @media (prefers-color-scheme: dark) {
            .a {
                stroke: #fff
            }
        }
    </style>
    <path d="m213.477 48.948 26.139-.003.103 774.305-26.139.003z" />
    <path
        d="M60.937 54.357c12.479.145 137.01 2.029 166.355 2.144 37.655.148 134.737.319 158.922-.89 2.47-.124 2.686-29.766.249-29.842-26.684-.835-121.334-1.844-158.129-2.226-34.413-.36-150.979.033-166.4.294-2.235.038-2.886 30.498-.997 30.52Z"
        class="a" stroke="#000" />
    <path d="m140.123 405.696 7.135 114.989 77.962-32.744" fill="none" class="a" stroke="#000" stroke-width="4.07" />
    <path d="m71.436 395.942 15.962 113.125 138.436-19.835" fill="none" class="a" stroke="#000" stroke-width="4.07" />
    <path d="m30.457 378.934 22.94 107.595 174.324 2.525" fill="none" class="a" stroke="#000" stroke-width="4.07" />
    <path d="m93.877 361.278 8.649 97.717 123.47 29.134" fill="none" class="a" stroke="#000" stroke-width="4.07" />
    <path d="m550.703 484.79 2.4 94.209 58.854 38.833" fill="none" class="a" stroke="#000" stroke-width="3.98"
        transform="matrix(1.0274 0 0 1.01606 -402.821 -138.837)" />
    <path d="m694.249 538.516-11.424 110.137-70.244-32.413" fill="none" class="a" stroke="#000" stroke-width="4.12"
        transform="matrix(.93933 0 0 1.03181 -348.75 -148.06)" />
    <path d="m372.091 400.072-17.619 113.482-125.643-24.545" fill="none" class="a" stroke="#000" stroke-width="4.07" />
    <path d="m298.679 355.404-8.219 97.303-63.767 35.815" fill="none" class="a" stroke="#000" stroke-width="4.07" />
    <path d="m383.166 365.241-15.378 97.256-138.994 25.618" fill="none" class="a" stroke="#000" stroke-width="4.07" />
    <path d="M808.422 510.725 788.2 620.564l-170.263-.026" fill="none" class="a" stroke="#000" stroke-width="4.04"
        transform="matrix(1.02497 0 0 .9893 -406.112 -124.88)" />
    <ellipse cx="619.457" cy="524.348" rx="196.247" ry="29.215" fill="none" class="a" stroke="#000" stroke-width="6.55"
        transform="matrix(.9543 0 0 1.07871 -364.596 -128.883)" />
    <ellipse cx="619.457" cy="524.348" rx="196.247" ry="29.215" fill="none" class="a" stroke="#000" stroke-width="6.9"
        transform="matrix(1 0 0 .93066 -392.747 -108.294)" />
    <ellipse cx="619.457" cy="524.348" rx="196.247" ry="29.215" fill="none" class="a" stroke="#000" stroke-width="6.95"
        transform="matrix(.83298 0 0 1.07188 -286.994 -75.301)" />
    <g>
        <path
            d="m452.766 366.447 327.463-.19c3.791 5.561-66.638 196.887-167.107 192.909-110.485-4.374-170.493-190.229-160.356-192.719Z"
            fill="none" class="a" stroke="#000" stroke-width="4.28"
            transform="matrix(.9485 0 0 1.9881 -360.215 -683.51)" />
        <path
            d="m452.766 366.447 327.463-.19c3.791 5.561-66.638 196.887-167.107 192.909-110.485-4.374-170.493-190.229-160.356-192.719Z"
            fill="none" class="a" stroke="#000" stroke-width="4.76"
            transform="matrix(.33559 0 0 1.9509 18.081 -662.71)" />
        <path
            d="m452.766 366.447 327.463-.19c3.791 5.561-66.638 196.887-167.107 192.909-110.485-4.374-170.493-190.229-160.356-192.719Z"
            fill="none" class="a" stroke="#000" stroke-width="4.59"
            transform="matrix(.59387 0 0 1.96687 -140.69 -674.409)" />
        <path
            d="m452.766 366.447 327.463-.19c3.791 5.561-66.638 196.887-167.107 192.909-110.485-4.374-170.493-190.229-160.356-192.719Z"
            fill="none" class="a" stroke="#000" stroke-width="4.44"
            transform="matrix(.7908 0 0 1.97111 -262.359 -674.009)" />
    </g>
</svg>
