<?xml version="1.0" encoding="UTF-8" standalone="no"?><!DOCTYPE svg PUBLIC "-//W3C//DTD SVG 1.1//EN" "http://www.w3.org/Graphics/SVG/1.1/DTD/svg11.dtd"><svg width="100%" height="100%" viewBox="0 0 3516 3516" version="1.1" xmlns="http://www.w3.org/2000/svg" xmlns:xlink="http://www.w3.org/1999/xlink" xml:space="preserve" xmlns:serif="http://www.serif.com/" style="fill-rule:evenodd;clip-rule:evenodd;stroke-linecap:round;stroke-linejoin:round;stroke-miterlimit:1.5;"><rect id="_2---Coloured" serif:id="2 - Coloured" x="0.1" y="0.129" width="3514.96" height="3514.96" style="fill:none;"/><g id="_2---Coloured1" serif:id="2 - Coloured"><circle cx="1757.58" cy="1757.61" r="1700.79" style="fill:#8cb9ad;stroke:#000;stroke-width:50px;"/><circle cx="1757.58" cy="1757.61" r="1190.55" style="fill:#043f9f;"/><clipPath id="_clip1"><circle cx="1757.58" cy="1757.61" r="1190.55"/></clipPath><g clip-path="url(#_clip1)"><path d="M-210.05,2560.33l-0.031,-9.6c116.891,-0.373 220.98,42.713 325.03,86.133c102.887,42.935 205.734,86.198 321.283,86.687c122.088,0.517 231.229,-42.561 336.862,-85.665c106.795,-43.577 210.052,-87.155 319.189,-87.155c109.138,0 213.225,43.074 319.205,86.398c104.822,42.851 211.521,85.933 327.092,86.422c122.088,0.517 231.229,-42.561 336.862,-85.665c106.795,-43.577 210.052,-87.155 319.189,-87.155c109.138,0 213.225,43.074 319.205,86.398c104.822,42.851 211.521,85.933 327.092,86.422c122.088,0.517 231.23,-42.561 336.862,-85.665c106.795,-43.577 210.052,-87.155 319.189,-87.155c109.138,0 213.225,43.074 319.205,86.398c104.822,42.851 211.521,85.933 327.092,86.422c122.069,0.517 229.239,-44.016 333.879,-87.819c105.857,-44.312 209.164,-87.857 322.3,-84.836l-0.256,9.596c-111.771,-2.984 -213.757,40.318 -318.337,84.096c-105.797,44.287 -214.209,89.085 -337.626,88.563c-116.82,-0.494 -224.73,-43.822 -330.685,-87.136c-104.796,-42.84 -207.653,-85.684 -315.572,-85.684c-107.921,0 -209.957,43.352 -315.562,86.444c-106.766,43.566 -217.131,86.898 -340.529,86.376c-116.82,-0.494 -224.73,-43.822 -330.685,-87.136c-104.796,-42.84 -207.653,-85.684 -315.572,-85.684c-107.921,0 -209.957,43.352 -315.562,86.444c-106.766,43.566 -217.131,86.898 -340.529,86.376c-116.82,-0.494 -224.73,-43.822 -330.685,-87.136c-104.796,-42.84 -207.653,-85.684 -315.572,-85.684c-107.922,0 -209.957,43.352 -315.562,86.444c-106.766,43.566 -217.131,86.898 -340.53,86.376c-116.841,-0.494 -220.901,-44.012 -324.94,-87.427c-102.875,-42.931 -205.729,-85.762 -321.301,-85.393Z" style="fill:#8cb9ad;stroke:#8cb9ad;stroke-width:180px;"/><path d="M-210.05,2184.48l-0.031,-9.6c116.891,-0.374 220.98,42.713 325.03,86.133c102.887,42.934 205.734,86.198 321.283,86.687c122.088,0.516 231.229,-42.561 336.862,-85.665c106.795,-43.578 210.052,-87.155 319.189,-87.155c109.138,-0 213.225,43.074 319.205,86.398c104.822,42.85 211.521,85.933 327.092,86.422c122.088,0.516 231.229,-42.561 336.862,-85.665c106.795,-43.578 210.052,-87.155 319.189,-87.155c109.138,-0 213.225,43.074 319.205,86.398c104.822,42.85 211.521,85.933 327.092,86.422c122.088,0.516 231.23,-42.561 336.862,-85.665c106.795,-43.578 210.052,-87.155 319.189,-87.155c109.138,-0 213.225,43.074 319.205,86.398c104.822,42.85 211.521,85.933 327.092,86.422c122.069,0.516 229.239,-44.016 333.879,-87.819c105.857,-44.312 209.164,-87.858 322.3,-84.837l-0.256,9.597c-111.771,-2.985 -213.757,40.318 -318.337,84.095c-105.797,44.287 -214.209,89.086 -337.626,88.564c-116.82,-0.495 -224.73,-43.822 -330.685,-87.136c-104.796,-42.84 -207.653,-85.684 -315.572,-85.684c-107.921,-0 -209.957,43.351 -315.562,86.443c-106.766,43.567 -217.131,86.899 -340.529,86.377c-116.82,-0.495 -224.73,-43.822 -330.685,-87.136c-104.796,-42.84 -207.653,-85.684 -315.572,-85.684c-107.921,-0 -209.957,43.351 -315.562,86.443c-106.766,43.567 -217.131,86.899 -340.529,86.377c-116.82,-0.495 -224.73,-43.822 -330.685,-87.136c-104.796,-42.84 -207.653,-85.684 -315.572,-85.684c-107.922,-0 -209.957,43.351 -315.562,86.443c-106.766,43.567 -217.131,86.899 -340.53,86.377c-116.841,-0.495 -220.901,-44.013 -324.94,-87.428c-102.875,-42.93 -205.729,-85.762 -321.301,-85.392Z" style="fill:#8cb9ad;stroke:#8cb9ad;stroke-width:180px;"/></g><circle cx="1757.58" cy="1757.61" r="1190.55" style="fill:none;stroke:#000;stroke-width:50px;"/><g transform="matrix(0.23998,-0.00308401,0.00308401,0.23998,-79.3257,38.1728)"><g transform="matrix(0.624704,0.780862,-0.780862,0.624704,9282.25,2632.68)"><text x="1902.27px" y="10972.9px" style="font-family:'Futura-Medium', 'Futura', sans-serif;font-weight:500;font-size:1666.67px;">D</text></g><g transform="matrix(0.714177,0.699965,-0.699965,0.714177,9096.85,1531.61)"><text x="2673.01px" y="11904.7px" style="font-family:'Futura-Medium', 'Futura', sans-serif;font-weight:500;font-size:1666.67px;">I</text></g><g transform="matrix(0.785966,0.61827,-0.61827,0.785966,8225.32,759.105)"><text x="3016.27px" y="12259.6px" style="font-family:'Futura-Medium', 'Futura', sans-serif;font-weight:500;font-size:1666.67px;">S</text></g><g transform="matrix(0.873315,0.487155,-0.487155,0.873315,6747.39,-209.872)"><text x="3777.22px" y="12868.3px" style="font-family:'Futura-Medium', 'Futura', sans-serif;font-weight:500;font-size:1666.67px;">C</text></g><g transform="matrix(0.971435,0.237304,-0.237304,0.971435,3388.22,-862.462)"><text x="5276.62px" y="13642.8px" style="font-family:'Futura-Medium', 'Futura', sans-serif;font-weight:500;font-size:1666.67px;">G</text></g><g transform="matrix(0.999688,0.0249675,-0.0249675,0.999688,351.129,-161.525)"><text x="6643.98px" y="13980.5px" style="font-family:'Futura-Medium', 'Futura', sans-serif;font-weight:500;font-size:1666.67px;">O</text></g><g transform="matrix(0.98903,-0.147717,0.147717,0.98903,-1977.42,1355.18)"><text x="8135.12px" y="13990.7px" style="font-family:'Futura-Medium', 'Futura', sans-serif;font-weight:500;font-size:1666.67px;">L</text></g><g transform="matrix(0.965419,-0.260702,0.260702,0.965419,-3314.55,2792.29)"><text x="8868.2px" y="13890.3px" style="font-family:'Futura-Medium', 'Futura', sans-serif;font-weight:500;font-size:1666.67px;">F</text></g><g transform="matrix(0.884687,-0.466186,0.466186,0.884687,-5120.71,6300.16)"><text x="10174.7px" y="13501px" style="font-family:'Futura-Medium', 'Futura', sans-serif;font-weight:500;font-size:1666.67px;">C</text></g><g transform="matrix(0.804762,-0.593598,0.593598,0.804762,-5497.04,9177.89)"><text x="11203.6px" y="12945.5px" style="font-family:'Futura-Medium', 'Futura', sans-serif;font-weight:500;font-size:1666.67px;">L</text></g><g transform="matrix(0.720401,-0.693557,0.693557,0.720401,-5406.47,11680.2)"><text x="11783.4px" y="12545.6px" style="font-family:'Futura-Medium', 'Futura', sans-serif;font-weight:500;font-size:1666.67px;">U</text></g><g transform="matrix(0.5942,-0.804317,0.804317,0.5942,-4258.13,14929.4)"><text x="12666.4px" y="11684.6px" style="font-family:'Futura-Medium', 'Futura', sans-serif;font-weight:500;font-size:1666.67px;">B</text></g></g><g transform="matrix(0.23998,-0.00308401,0.00308401,0.23998,265.26,380.528)"><g transform="matrix(0.657042,-0.753854,0.753854,0.657042,-1511.83,2280.85)"><text x="1750.84px" y="2802px" style="font-family:'Futura-Medium', 'Futura', sans-serif;font-weight:500;font-size:1666.67px;">C</text></g><g transform="matrix(0.811812,-0.583919,0.583919,0.811812,-627.814,1840.98)"><text x="2542.23px" y="1894.49px" style="font-family:'Futura-Medium', 'Futura', sans-serif;font-weight:500;font-size:1666.67px;">A</text></g><g transform="matrix(0.936806,-0.349849,0.349849,0.936806,-178.502,1310.57)"><text x="3538.48px" y="1149.39px" style="font-family:'Futura-Medium', 'Futura', sans-serif;font-weight:500;font-size:1666.67px;">M</text></g><g transform="matrix(0.994462,-0.105093,0.105093,0.994462,-37.2916,534.915)"><text x="5057.2px" y="621.32px" style="font-family:'Futura-Medium', 'Futura', sans-serif;font-weight:500;font-size:1666.67px;">B</text></g><g transform="matrix(0.996445,0.0842475,-0.0842475,0.996445,64.3279,-506.963)"><text x="6039.01px" y="508.719px" style="font-family:'Futura-Medium', 'Futura', sans-serif;font-weight:500;font-size:1666.67px;">R</text></g><g transform="matrix(0.977065,0.212942,-0.212942,0.977065,290.48,-1484.68)"><text x="7037.55px" y="606.146px" style="font-family:'Futura-Medium', 'Futura', sans-serif;font-weight:500;font-size:1666.67px;">I</text></g><g transform="matrix(0.927919,0.372781,-0.372781,0.927919,796.353,-2757.87)"><text x="7529.65px" y="680.324px" style="font-family:'Futura-Medium', 'Futura', sans-serif;font-weight:500;font-size:1666.67px;">D</text></g><g transform="matrix(0.812685,0.582703,-0.582703,0.812685,2275.7,-4838.51)"><text x="8663.74px" y="1120.39px" style="font-family:'Futura-Medium', 'Futura', sans-serif;font-weight:500;font-size:1666.67px;">G</text></g><g transform="matrix(0.662641,0.748937,-0.748937,0.662641,4771.82,-6673.92)"><text x="9793.96px" y="1959.77px" style="font-family:'Futura-Medium', 'Futura', sans-serif;font-weight:500;font-size:1666.67px;">E</text></g></g><g><ellipse cx="1757.18" cy="1248.23" rx="255.118" ry="39.18" style="fill:none;stroke:#fcdb0f;stroke-width:35px;"/><rect x="1565.84" y="1730.78" width="382.677" height="78.36" style="fill:none;stroke:#fcdb0f;stroke-width:35px;"/><path d="M1756.06,2174.88l-0,-963.793" style="fill:none;stroke:#fcdb0f;stroke-width:35px;"/><path d="M2012.3,1252.59c0,263.473 -114.314,477.38 -255.118,477.38c-140.803,-0 -255.118,-213.907 -255.118,-477.38" style="fill:none;stroke:#fcdb0f;stroke-width:35px;"/><path d="M1887.09,1224.61c-0,259.488 -59.097,492.685 -130.15,492.685c-71.053,-0 -129.679,-237.818 -129.679,-497.305" style="fill:none;stroke:#fcdb0f;stroke-width:35px;"/><rect x="1660.39" y="2140.96" width="191.339" height="33.466" style="stroke:#fcdb0f;stroke-width:35px;"/></g><path d="M1757.18,1137.6c-61.549,0 -184.648,5.012 -184.648,5.012c0,-0 -23.519,-61.015 -75.082,-254.476l0.172,-0.139c-1.041,0.092 -2.096,0.139 -3.161,0.139c-19.547,0 -35.416,-15.869 -35.416,-35.415c0,-19.547 15.869,-35.416 35.416,-35.416c19.546,-0 35.416,15.869 35.416,35.416c-0,4.673 -0.907,9.137 -2.554,13.221l4.674,2.398c5.506,-12.413 17.944,-21.082 32.391,-21.082c19.546,0 35.415,15.869 35.415,35.416c0,19.546 -15.869,35.416 -35.415,35.416c-10.237,-0 -19.465,-4.353 -25.934,-11.307c11.422,67.916 64.143,138.248 74.255,132.929c21.578,-11.351 78.159,-17.774 89.098,-26.225c21.296,-16.451 40.215,-57.269 41.333,-69.346c1.054,-11.386 0.107,-75.792 0.008,-82.294c-5.563,12.277 -17.929,20.827 -32.276,20.827c-19.546,-0 -35.416,-15.869 -35.416,-35.416c0,-19.546 15.87,-35.416 35.416,-35.416c8.176,0 15.709,2.777 21.708,7.44c-6.667,-6.442 -10.816,-15.475 -10.816,-25.469c0,-19.546 15.87,-35.416 35.416,-35.416l0.229,0.001c19.441,0.123 35.187,15.945 35.187,35.415c-0,9.994 -4.149,19.027 -10.816,25.469c5.999,-4.663 13.532,-7.44 21.708,-7.44c19.546,0 35.416,15.87 35.416,35.416c-0,19.547 -15.87,35.416 -35.416,35.416c-14.347,-0 -26.713,-8.55 -32.276,-20.827c-0.099,6.502 -1.046,70.908 0.008,82.294c1.118,12.077 20.038,52.895 41.333,69.346c10.939,8.451 67.52,14.874 89.098,26.225c10.112,5.319 62.833,-65.013 74.255,-132.929c-6.469,6.954 -15.697,11.307 -25.933,11.307c-19.547,-0 -35.416,-15.87 -35.416,-35.416c-0,-19.547 15.869,-35.416 35.416,-35.416c14.446,0 26.884,8.669 32.39,21.082l4.675,-2.398c-1.647,-4.084 -2.555,-8.548 -2.555,-13.221c0,-19.547 15.87,-35.416 35.416,-35.416c19.547,-0 35.416,15.869 35.416,35.416c-0,19.546 -15.869,35.415 -35.416,35.415c-1.065,0 -2.119,-0.047 -3.161,-0.139l0.172,0.139c-51.563,193.461 -75.082,254.476 -75.082,254.476c0,-0 -123.099,-5.012 -184.648,-5.012Z" style="fill:#ffd900;"/></g></svg>